{"title":"The Vampire Diaries S07E01 HDTV x264-LOL[rartv]","uid":12581149,"size":285145662,"categoryP":"video","categoryS":"tv_shows","magnet":"?xt=urn:btih:c50e00d8b65bbdd8f9b6df396fbbd27d57864364&amp;dn=The+Vampire+Diaries+S07E01+HDTV+x264-LOL%5Brartv%5D&amp;tr=udp%3A%2F%2Ftracker.leechers-paradise.org%3A6969&amp;tr=udp%3A%2F%2Fzer0day.ch%3A1337&amp;tr=udp%3A%2F%2Fopen.demonii.com%3A1337&amp;tr=udp%3A%2F%2Ftracker.coppersurfer.tk%3A6969&amp;tr=udp%3A%2F%2Fexodus.desync.com%3A6969","seeders":3,"leechers":0,"uploader":"TheRival","files":3,"time":1444953889,"description":"Screens: \nhttp://extraimago.com/image/9zf\r\n\r\nVideo\r\nID : 1\r\nFormat : AVC\r\nFormat/Info : Advanced Video Codec\r\nFormat profile :   \r\nFormat settings, CABAC : Yes\r\nFormat settings, ReFrames : 5 frames\r\nCodec ID : avc1\r\nCodec ID/Info : Advanced Video Coding\r\nDuration : 42mn 26s\r\nBit rate : 774 Kbps\r\nMaximum bit rate : 3 900 Kbps\r\nWidth : 720 pixels\r\nHeight : 404 pixels\r\nDisplay aspect ratio : 16:9\r\nFrame rate mode : Constant\r\nFrame rate : 23.976 fps\r\nColor space : YUV\r\nChroma subsampling : 4:2:0\r\nBit depth : 8 bits\r\nScan type : Progressive\r\nBits/(Pixel*Frame) : 0.111\r\nStream size : 235 MiB (86%)\r\nWriting library : x264 core 148 r2597 e86f3a1\r\nEncoding settings : cabac=1 / ref=5 / deblock=1:1:1 / analyse=0x3:0x133 / me=umh / subme=9 / psy=1 / psy_rd=1.00:0.00 / mixed_ref=1 / me_range=16 / chroma_me=1 / trellis=2 / 8x8dct=1 / cqm=0 / deadzone=21,11 / fast_pskip=1 / chroma_qp_offset=-2 / threads=13 / lookahead_threads=1 / sliced_threads=0 / nr=0 / decimate=1 / interlaced=0 / bluray_compat=0 / constrained_intra=0 / bframes=3 / b_pyramid=2 / b_adapt=2 / b_bias=0 / direct=3 / weightb=1 / open_gop=0 / weightp=2 / keyint=250 / keyint_min=23 / scenecut=40 / intra_refresh=0 / rc_lookahead=60 / rc=crf / mbtree=1 / crf=20.0 / qcomp=0.60 / qpmin=0 / qpmax=69 / qpstep=4 / ip_ratio=1.40 / aq=1:1.00\r\nEncoded date : UTC 2015-10-08 17:41:42\r\nTagged date : UTC 2015-10-08 17:41:44\r\nColor range : Limited\r\nMatrix coefficients : BT.709\r\n\r\nAudio\r\nID : 2\r\nFormat : AAC\r\nFormat/Info : Advanced Audio Codec\r\nFormat profile : LC\r\nCodec ID : 40\r\nDuration : 42mn 25s\r\nBit rate mode : Variable\r\nBit rate : 117 Kbps\r\nMaximum bit rate : 153 Kbps\r\nChannel(s) : 2 channels\r\nChannel positions : Front: L R\r\nSampling rate : 48.0 KHz\r\nCompression mode : Lossy\r\nStream size : 35.6 MiB (13%)\r\nEncoded date : UTC 2015-10-08 17:41:43\r\nTagged date : UTC 2015-10-08 17:41:44","torrent":{"xt":"urn:btih:c50e00d8b65bbdd8f9b6df396fbbd27d57864364","amp;dn":"The+Vampire+Diaries+S07E01+HDTV+x264-LOL%5Brartv%5D","amp;tr":["udp%3A%2F%2Ftracker.leechers-paradise.org%3A6969","udp%3A%2F%2Fzer0day.ch%3A1337","udp%3A%2F%2Fopen.demonii.com%3A1337","udp%3A%2F%2Ftracker.coppersurfer.tk%3A6969","udp%3A%2F%2Fexodus.desync.com%3A6969"],"infoHash":"c50e00d8b65bbdd8f9b6df396fbbd27d57864364","infoHashBuffer":{"type":"Buffer","data":[197,14,0,216,182,91,189,216,249,182,223,57,111,187,210,125,87,134,67,100]},"announce":[],"urlList":[]}}